<svg xmlns="http://www.w3.org/2000/svg" width="700" height="220" viewBox="0 0 700 220" role="img" aria-labelledby="title desc">
  <title id="title">OpenEvidence Selection Opener demo</title>
  <desc id="desc">A selected clinical paragraph with the Ask OpenEvidence, PICO, and custom prompt buttons floating above the selection.</desc>
  <rect width="700" height="220" fill="#ffffff"/>

  <text x="18" y="44" fill="#242424" font-family="Arial, Helvetica, sans-serif" font-size="14" font-weight="700" letter-spacing="0.4">BACKGROUND</text>

  <g fill="#b9dcff">
    <rect x="18" y="62" width="650" height="23" rx="1"/>
    <rect x="18" y="85" width="675" height="23" rx="1"/>
    <rect x="18" y="108" width="657" height="23" rx="1"/>
    <rect x="18" y="131" width="473" height="23" rx="1"/>
  </g>

  <g font-family="Georgia, 'Times New Roman', serif" font-size="18" fill="#3f3f46">
    <text x="18" y="79">Current therapies offer limited benefit for patients with previously treated metastatic</text>
    <text x="18" y="102">pancreatic ductal adenocarcinoma (mPDAC). Aberrant activation of the RAS pathway is the</text>
    <text x="18" y="125">key driver of PDAC, with oncogenic RAS mutations present in more than 90% of cases.</text>
    <text x="18" y="148">Daraxonrasib is an oral RAS(ON) multiselective inhibitor.</text>
  </g>

  <g transform="translate(205 24)">
    <rect x="0" y="0" width="371" height="42" rx="7" fill="#1f1f1f" stroke="#383838"/>
    <rect x="4" y="4" width="167" height="34" rx="6" fill="#f97316" stroke="#ea580c"/>
    <rect x="177" y="4" width="74" height="34" rx="6" fill="#18181b" stroke="#383838"/>
    <rect x="257" y="4" width="110" height="34" rx="6" fill="#18181b" stroke="#383838"/>

    <g transform="translate(18 13)" fill="none" stroke="#ffffff" stroke-width="2" stroke-linecap="round" stroke-linejoin="round">
      <circle cx="6" cy="6" r="5"/>
      <path d="m10 10 4 4"/>
    </g>
    <text x="45" y="26" fill="#ffffff" font-family="Inter, Arial, Helvetica, sans-serif" font-size="13" font-weight="700">Ask OpenEvidence</text>

    <g transform="translate(192 11)" fill="none" stroke="#ffffff" stroke-width="1.8" stroke-linecap="round" stroke-linejoin="round">
      <path d="M9 6a2 2 0 1 1-4 0 4 4 0 0 1 8 0 6 6 0 0 1-12 0 8 8 0 0 1 16 0"/>
      <path d="M7 6v12"/>
    </g>
    <text x="217" y="26" fill="#ffffff" font-family="Inter, Arial, Helvetica, sans-serif" font-size="13" font-weight="700">PICO</text>

    <g transform="translate(273 12)" fill="none" stroke="#ffffff" stroke-width="1.8" stroke-linecap="round" stroke-linejoin="round">
      <path d="M7 1 6 4a2 2 0 0 1-1 1L2 6l3 1a2 2 0 0 1 1 1l1 3 1-3a2 2 0 0 1 1-1l3-1-3-1a2 2 0 0 1-1-1Z"/>
      <path d="M15 11v4"/>
      <path d="M17 13h-4"/>
    </g>
    <text x="301" y="26" fill="#ffffff" font-family="Inter, Arial, Helvetica, sans-serif" font-size="13" font-weight="700">ELI5</text>
  </g>
</svg>
